<svg width="1512" height="982" viewBox="0 0 1512 982" fill="none" xmlns="http://www.w3.org/2000/svg">
<rect width="1512" height="982" fill="url(#paint0_linear_708_2178)"/>
<g filter="url(#filter0_f_708_2178)">
<path d="M386.252 400H1160L1133.75 446H360L386.252 400Z" fill="white"/>
</g>
<path d="M406.621 430.8H453.521L437.221 448H403.621C382.721 448 368.821 435.4 368.821 418.5C368.821 396.5 389.821 381.1 415.421 381.1H462.321L445.921 398.5H412.321C400.021 398.5 389.621 406.4 389.621 417C389.621 425.3 396.521 430.8 406.621 430.8ZM550.806 381.1L538.906 448H518.306L522.906 422.2H483.006L478.506 448H457.706L469.606 381.1H490.306L486.006 404.8H525.906L530.106 381.1H550.806ZM584.452 381.1L572.652 448H551.952L563.852 381.1H584.452ZM681.638 402.6C681.638 419.2 667.138 430.9 643.938 430.9H608.938L605.938 448H585.338L591.338 413.8H648.938C656.138 413.8 660.538 410.1 660.538 404.9C660.538 401 657.438 398.5 651.638 398.5H594.038L610.838 381.1H652.838C671.438 381.1 681.638 389.8 681.638 402.6ZM685.012 381.1H710.312L732.612 425.5L771.812 381.1H796.312L742.712 441.6C739.212 445.5 734.512 449.1 728.012 449.1C721.812 449.1 718.312 445.8 716.112 441.6L685.012 381.1ZM872.107 448H794.307L809.907 430.8H826.607C830.707 430.8 835.307 430.8 838.507 431C837.107 428.6 835.007 424.5 833.407 421.3L824.507 403.6L785.307 448H760.807L814.407 387.5C817.907 383.6 822.607 380 829.107 380C835.307 380 838.807 383.3 841.007 387.5L872.107 448ZM877.097 381.1H953.097L936.497 398.5H912.697L903.897 448H883.197L891.897 398.5H860.497L877.097 381.1ZM1032.46 448H954.659L970.259 430.8H986.959C991.059 430.8 995.659 430.8 998.859 431C997.459 428.6 995.359 424.5 993.759 421.3L984.859 403.6L945.659 448H921.159L974.759 387.5C978.259 383.6 982.959 380 989.459 380C995.659 380 999.159 383.3 1001.36 387.5L1032.46 448ZM1124.64 435L1134.74 448H1107.04L1095.24 430.3H1063.44L1060.34 448H1039.64L1045.64 413.8H1103.84C1110.74 413.8 1116.74 410.5 1116.74 405.1C1116.74 400.7 1112.94 398.5 1106.54 398.5H1048.34L1064.94 381.1H1107.94C1121.94 381.1 1138.54 385.4 1138.54 401.4C1138.54 413.5 1129.84 423.7 1116.94 426.2C1118.84 427.9 1120.94 430.3 1124.64 435Z" fill="#551ECE"/>
<path d="M498.062 485.594C498.062 486.177 497.854 486.667 497.438 487.062C497.042 487.479 496.552 487.688 495.969 487.688H483.469C483.073 487.708 482.74 487.802 482.469 487.969C482.219 488.115 482.031 488.292 481.906 488.5C481.781 488.688 481.719 488.885 481.719 489.094C481.719 489.302 481.781 489.51 481.906 489.719C482.031 489.906 482.219 490.083 482.469 490.25C482.74 490.396 483.073 490.479 483.469 490.5H492.344C493.802 490.542 495 490.885 495.938 491.531C496.896 492.156 497.573 492.885 497.969 493.719C498.385 494.531 498.594 495.365 498.594 496.219C498.594 497.052 498.385 497.885 497.969 498.719C497.552 499.531 496.875 500.26 495.938 500.906C495 501.531 493.802 501.844 492.344 501.844H492.156C492.031 501.865 491.906 501.875 491.781 501.875H479.969C479.385 501.875 478.885 501.677 478.469 501.281C478.073 500.865 477.875 500.365 477.875 499.781C477.875 499.198 478.083 498.708 478.5 498.312C478.896 497.896 479.385 497.688 479.969 497.688H492.531C492.927 497.708 493.25 497.635 493.5 497.469C493.771 497.302 493.969 497.115 494.094 496.906C494.219 496.677 494.281 496.448 494.281 496.219C494.281 496.073 494.219 495.875 494.094 495.625C493.969 495.354 493.771 495.135 493.5 494.969C493.25 494.802 492.927 494.708 492.531 494.688H483.656C482.198 494.646 480.99 494.312 480.031 493.688C479.094 493.062 478.417 492.354 478 491.562C477.604 490.75 477.406 489.927 477.406 489.094C477.406 488.281 477.615 487.479 478.031 486.688C478.448 485.875 479.125 485.156 480.062 484.531C481 483.906 482.198 483.573 483.656 483.531H483.844C483.969 483.51 484.094 483.5 484.219 483.5H495.969C496.552 483.5 497.042 483.708 497.438 484.125C497.854 484.521 498.062 485.01 498.062 485.594ZM508.719 487.281C509.448 487.281 510.156 487.406 510.844 487.656C511.552 487.906 512.229 488.271 512.875 488.75C512.979 488.854 513.094 488.958 513.219 489.062C513.323 488.958 513.438 488.854 513.562 488.75C514.208 488.271 514.875 487.906 515.562 487.656C516.271 487.406 516.979 487.281 517.688 487.281C518.417 487.281 519.125 487.406 519.812 487.656C520.521 487.906 521.188 488.281 521.812 488.781C522.458 489.26 523.021 489.906 523.5 490.719C524 491.531 524.25 492.5 524.25 493.625V500.281C524.125 501.531 523.438 502.208 522.188 502.312C521.604 502.312 521.094 502.125 520.656 501.75C520.24 501.354 520.031 500.865 520.031 500.281V493.875C520.031 493.375 519.938 492.958 519.75 492.625C519.562 492.271 519.354 492 519.125 491.812C518.896 491.604 518.656 491.458 518.406 491.375C518.156 491.271 517.906 491.219 517.656 491.219C517.406 491.219 517.156 491.271 516.906 491.375C516.677 491.458 516.448 491.604 516.219 491.812C515.99 492 515.781 492.271 515.594 492.625C515.406 492.958 515.302 493.375 515.281 493.875V500.281C515.156 501.531 514.469 502.208 513.219 502.312C512.635 502.312 512.125 502.125 511.688 501.75C511.271 501.354 511.062 500.865 511.062 500.281V493.875C511.062 493.375 510.969 492.958 510.781 492.625C510.594 492.271 510.385 492 510.156 491.812C509.927 491.604 509.688 491.458 509.438 491.375C509.188 491.271 508.938 491.219 508.688 491.219C508.438 491.219 508.188 491.271 507.938 491.375C507.708 491.458 507.479 491.604 507.25 491.812C507.021 492 506.812 492.271 506.625 492.625C506.438 492.958 506.333 493.375 506.312 493.875V500.281C506.208 501.531 505.531 502.208 504.281 502.312C503.698 502.312 503.188 502.125 502.75 501.75C502.333 501.354 502.125 500.865 502.125 500.281V493.625C502.167 492.5 502.427 491.531 502.906 490.719C503.385 489.906 503.948 489.26 504.594 488.781C505.24 488.281 505.906 487.906 506.594 487.656C507.302 487.406 508.01 487.281 508.719 487.281ZM545.594 500.281V492.75C545.594 492.229 545.323 491.958 544.781 491.938H533.844C533.448 491.958 533.104 492.135 532.812 492.469C532.521 492.781 532.302 493.156 532.156 493.594C532.031 494.01 531.969 494.438 531.969 494.875C531.969 495.292 532.031 495.719 532.156 496.156C532.302 496.573 532.521 496.948 532.812 497.281C533.104 497.594 533.448 497.75 533.844 497.75H541.844C542.427 497.75 542.917 497.958 543.312 498.375C543.729 498.771 543.938 499.26 543.938 499.844C543.938 500.427 543.729 500.917 543.312 501.312C542.917 501.729 542.427 501.938 541.844 501.938H533.969C532.51 501.917 531.302 501.51 530.344 500.719C529.406 499.906 528.729 499 528.312 498C527.917 496.979 527.719 495.927 527.719 494.844C527.719 493.802 527.927 492.781 528.344 491.781C528.76 490.76 529.438 489.854 530.375 489.062C531.312 488.25 532.698 487.812 534.531 487.75H547.656C548.24 487.75 548.74 487.948 549.156 488.344C549.573 488.719 549.792 489.198 549.812 489.781V500.281C549.812 500.865 549.594 501.354 549.156 501.75C548.74 502.125 548.24 502.312 547.656 502.312C546.406 502.208 545.719 501.531 545.594 500.281ZM554.5 491.688C554.896 490.688 555.562 489.792 556.5 489C557.458 488.188 558.667 487.771 560.125 487.75H571.875C572.458 487.75 572.948 487.958 573.344 488.375C573.76 488.771 573.969 489.26 573.969 489.844C573.969 490.427 573.76 490.927 573.344 491.344C572.948 491.74 572.458 491.938 571.875 491.938H560C559.604 491.938 559.26 492.104 558.969 492.438C558.677 492.75 558.448 493.125 558.281 493.562C558.135 494 558.062 494.417 558.062 494.812V500.281C557.938 501.531 557.25 502.208 556 502.312C555.417 502.312 554.906 502.125 554.469 501.75C554.052 501.354 553.844 500.865 553.844 500.281V494.844H553.875C553.875 493.76 554.083 492.708 554.5 491.688ZM583.844 483C584.427 483 584.927 483.198 585.344 483.594C585.76 483.969 585.979 484.448 586 485.031V487.75H596.625C597.208 487.75 597.708 487.948 598.125 488.344C598.521 488.76 598.719 489.26 598.719 489.844C598.719 490.427 598.51 490.927 598.094 491.344C597.698 491.74 597.208 491.938 596.625 491.938H586V492.562C585.979 493.417 586.031 494.208 586.156 494.938C586.302 495.646 586.635 496.281 587.156 496.844C587.677 497.406 588.333 497.708 589.125 497.75H596.75C597.333 497.771 597.812 497.99 598.188 498.406C598.583 498.823 598.781 499.323 598.781 499.906C598.76 500.469 598.552 500.948 598.156 501.344C597.781 501.719 597.312 501.917 596.75 501.938H588.062C586.604 501.854 585.396 501.365 584.438 500.469C583.5 499.552 582.823 498.438 582.406 497.125C582.01 495.812 581.802 494.417 581.781 492.938V491.938H578.188C577.604 491.938 577.115 491.729 576.719 491.312C576.302 490.917 576.094 490.427 576.094 489.844C576.094 489.26 576.292 488.771 576.688 488.375C577.104 487.958 577.604 487.75 578.188 487.75H581.781V485.031C581.802 484.469 582.01 484 582.406 483.625C582.802 483.229 583.281 483.021 583.844 483ZM631.344 483.5C632.802 483.583 634 484.146 634.938 485.188C635.875 486.208 636.552 487.375 636.969 488.688C637.385 490 637.594 491.344 637.594 492.719C637.594 494.094 637.385 495.438 636.969 496.75C636.573 498.062 635.896 499.24 634.938 500.281C634 501.302 632.802 501.854 631.344 501.938H619.844C619.281 501.917 618.802 501.719 618.406 501.344C618.031 500.948 617.833 500.469 617.812 499.906V492.156C617.833 491.573 618.052 491.094 618.469 490.719C618.885 490.323 619.385 490.125 619.969 490.125C620.531 490.146 621.01 490.354 621.406 490.75C621.802 491.125 622.01 491.594 622.031 492.156V496.906C622.031 497.469 622.323 497.75 622.906 497.75H630.281C631.073 497.708 631.729 497.406 632.25 496.844C632.771 496.281 633.146 495.646 633.375 494.938C633.625 494.208 633.75 493.469 633.75 492.719C633.75 491.969 633.625 491.24 633.375 490.531C633.146 489.802 632.771 489.156 632.25 488.594C631.729 488.031 631.073 487.729 630.281 487.688H619.844C618.594 487.583 617.917 486.906 617.812 485.656C617.812 485.073 618 484.573 618.375 484.156C618.771 483.74 619.26 483.521 619.844 483.5H631.344ZM647.406 501.938C645.573 501.875 644.188 501.448 643.25 500.656C642.312 499.844 641.635 498.938 641.219 497.938C640.802 496.917 640.594 495.885 640.594 494.844C640.594 493.76 640.792 492.719 641.188 491.719C641.604 490.698 642.281 489.792 643.219 489C644.177 488.188 645.385 487.771 646.844 487.75H658.719C659.302 487.75 659.792 487.948 660.188 488.344C660.604 488.719 660.812 489.177 660.812 489.719C660.812 490.281 660.604 490.76 660.188 491.156C659.792 491.531 659.302 491.719 658.719 491.719H647.031C646.573 491.719 646.167 491.875 645.812 492.188C645.479 492.5 645.229 492.906 645.062 493.406C644.917 493.906 644.844 494.396 644.844 494.875C644.844 495.396 644.917 495.906 645.062 496.406C645.229 496.906 645.479 497.312 645.812 497.625C646.167 497.917 646.573 498.073 647.031 498.094H658.719C659.302 498.094 659.792 498.281 660.188 498.656C660.604 499.031 660.812 499.479 660.812 500C660.812 500.542 660.604 501 660.188 501.375C659.792 501.75 659.302 501.938 658.719 501.938H647.406ZM660.438 494.781C660.438 495.177 660.26 495.521 659.906 495.812C659.594 496.083 659.198 496.219 658.719 496.219H648.5C648.021 496.219 647.615 496.083 647.281 495.812C646.948 495.521 646.781 495.177 646.781 494.781C646.781 494.406 646.948 494.073 647.281 493.781C647.615 493.51 648.021 493.375 648.5 493.375H658.719C659.198 493.375 659.604 493.521 659.938 493.812C660.271 494.083 660.438 494.406 660.438 494.781ZM670.75 501.938C668.917 501.875 667.531 501.448 666.594 500.656C665.656 499.844 664.979 498.938 664.562 497.938C664.146 496.917 663.938 495.885 663.938 494.844C663.938 493.76 664.135 492.719 664.531 491.719C664.948 490.698 665.625 489.792 666.562 489C667.521 488.188 668.729 487.771 670.188 487.75H682.062C682.646 487.75 683.135 487.958 683.531 488.375C683.948 488.771 684.156 489.26 684.156 489.844C684.156 490.427 683.948 490.927 683.531 491.344C683.135 491.74 682.646 491.938 682.062 491.938H670.062C669.667 491.938 669.323 492.104 669.031 492.438C668.74 492.75 668.521 493.125 668.375 493.562C668.25 493.979 668.188 494.396 668.188 494.812C668.188 495.25 668.25 495.688 668.375 496.125C668.521 496.542 668.74 496.917 669.031 497.25C669.323 497.562 669.667 497.729 670.062 497.75H682.062C682.646 497.75 683.135 497.958 683.531 498.375C683.948 498.771 684.156 499.26 684.156 499.844C684.156 500.427 683.948 500.917 683.531 501.312C683.135 501.729 682.646 501.938 682.062 501.938H670.75ZM689.594 487.438C690.156 487.458 690.635 487.667 691.031 488.062C691.427 488.438 691.635 488.906 691.656 489.469V500.281C691.531 501.531 690.844 502.208 689.594 502.312C689.01 502.312 688.5 502.125 688.062 501.75C687.646 501.354 687.438 500.865 687.438 500.281V489.469C687.458 488.885 687.677 488.406 688.094 488.031C688.51 487.635 689.01 487.438 689.594 487.438ZM686.969 483.375C686.969 482.792 687.219 482.292 687.719 481.875C688.219 481.458 688.823 481.25 689.531 481.25C690.24 481.25 690.844 481.458 691.344 481.875C691.844 482.292 692.094 482.792 692.094 483.375C692.094 483.979 691.844 484.49 691.344 484.906C690.844 485.323 690.24 485.531 689.531 485.531C688.823 485.531 688.219 485.323 687.719 484.906C687.219 484.49 686.969 483.979 686.969 483.375ZM715.312 489.562C715.312 490.083 715.104 490.521 714.688 490.875C714.292 491.208 713.802 491.375 713.219 491.375H700C699.729 491.375 699.51 491.427 699.344 491.531C699.177 491.635 699.052 491.75 698.969 491.875C698.885 491.979 698.844 492.073 698.844 492.156C698.844 492.26 698.885 492.375 698.969 492.5C699.052 492.604 699.177 492.708 699.344 492.812C699.51 492.896 699.729 492.948 700 492.969H710.219C711.531 492.99 712.615 493.25 713.469 493.75C714.323 494.229 714.927 494.802 715.281 495.469C715.656 496.115 715.844 496.771 715.844 497.438C715.844 498.083 715.656 498.74 715.281 499.406C714.906 500.052 714.292 500.625 713.438 501.125C712.604 501.604 711.531 501.844 710.219 501.844C709.99 501.865 709.823 501.875 709.719 501.875H697.594C697.01 501.875 696.51 501.708 696.094 501.375C695.698 501.021 695.5 500.594 695.5 500.094C695.5 499.573 695.708 499.135 696.125 498.781C696.521 498.448 697.01 498.281 697.594 498.281H710.469C710.781 498.302 711.031 498.26 711.219 498.156C711.427 498.052 711.583 497.938 711.688 497.812C711.792 497.688 711.844 497.562 711.844 497.438C711.844 497.375 711.792 497.271 711.688 497.125C711.583 496.958 711.427 496.833 711.219 496.75C711.031 496.646 710.781 496.583 710.469 496.562H700.219C699.01 496.542 698.01 496.292 697.219 495.812C696.427 495.312 695.865 494.74 695.531 494.094C695.198 493.448 695.031 492.802 695.031 492.156C695.031 491.51 695.198 490.875 695.531 490.25C695.885 489.604 696.448 489.052 697.219 488.594C698.01 488.115 699.01 487.854 700.219 487.812C700.427 487.792 700.583 487.781 700.688 487.781H713.219C713.802 487.781 714.292 487.958 714.688 488.312C715.104 488.646 715.312 489.062 715.312 489.562ZM721.469 487.438C722.031 487.458 722.51 487.667 722.906 488.062C723.302 488.438 723.51 488.906 723.531 489.469V500.281C723.406 501.531 722.719 502.208 721.469 502.312C720.885 502.312 720.375 502.125 719.938 501.75C719.521 501.354 719.312 500.865 719.312 500.281V489.469C719.333 488.885 719.552 488.406 719.969 488.031C720.385 487.635 720.885 487.438 721.469 487.438ZM718.844 483.375C718.844 482.792 719.094 482.292 719.594 481.875C720.094 481.458 720.698 481.25 721.406 481.25C722.115 481.25 722.719 481.458 723.219 481.875C723.719 482.292 723.969 482.792 723.969 483.375C723.969 483.979 723.719 484.49 723.219 484.906C722.719 485.323 722.115 485.531 721.406 485.531C720.698 485.531 720.094 485.323 719.594 484.906C719.094 484.49 718.844 483.979 718.844 483.375ZM733.812 501.938C731.979 501.875 730.594 501.448 729.656 500.656C728.719 499.844 728.042 498.938 727.625 497.938C727.208 496.917 727 495.885 727 494.844C727 493.76 727.198 492.719 727.594 491.719C728.01 490.698 728.688 489.792 729.625 489C730.583 488.188 731.792 487.771 733.25 487.75H743.375C744.833 487.771 746.031 488.188 746.969 489C747.927 489.792 748.604 490.698 749 491.719C749.417 492.719 749.625 493.76 749.625 494.844C749.625 495.885 749.417 496.917 749 497.938C748.583 498.938 747.906 499.844 746.969 500.656C746.031 501.448 744.646 501.875 742.812 501.938H733.812ZM733.125 491.938C732.729 491.938 732.385 492.104 732.094 492.438C731.802 492.75 731.583 493.125 731.438 493.562C731.312 493.979 731.25 494.396 731.25 494.812C731.25 495.25 731.312 495.688 731.438 496.125C731.583 496.542 731.802 496.917 732.094 497.25C732.385 497.562 732.729 497.729 733.125 497.75H743.5C743.896 497.729 744.24 497.562 744.531 497.25C744.823 496.917 745.031 496.542 745.156 496.125C745.302 495.688 745.375 495.25 745.375 494.812C745.375 494.396 745.302 493.979 745.156 493.562C745.031 493.125 744.823 492.75 744.531 492.438C744.24 492.104 743.896 491.938 743.5 491.938H733.125ZM763.188 487.281C764.271 487.281 765.333 487.406 766.375 487.656C767.438 487.906 768.448 488.281 769.406 488.781C770.365 489.26 771.208 489.906 771.938 490.719C772.688 491.531 773.094 492.5 773.156 493.625V494.938V500.281C773.031 501.531 772.344 502.208 771.094 502.312C770.51 502.312 770 502.125 769.562 501.75C769.146 501.354 768.938 500.865 768.938 500.281V498.906V494.594C768.896 493.948 768.646 493.417 768.188 493C767.75 492.562 767.25 492.219 766.688 491.969C766.146 491.719 765.573 491.531 764.969 491.406C764.385 491.281 763.792 491.219 763.188 491.219C762.583 491.219 761.979 491.281 761.375 491.406C760.792 491.531 760.219 491.719 759.656 491.969C759.115 492.219 758.615 492.562 758.156 493C757.719 493.417 757.479 493.948 757.438 494.594V498.906V500.281C757.333 501.531 756.656 502.208 755.406 502.312C754.823 502.312 754.312 502.125 753.875 501.75C753.458 501.354 753.25 500.865 753.25 500.281V494.938V493.625C753.312 492.5 753.708 491.531 754.438 490.719C755.167 489.906 756.01 489.26 756.969 488.781C757.927 488.281 758.927 487.906 759.969 487.656C761.031 487.406 762.104 487.281 763.188 487.281ZM796.969 489.562C796.969 490.083 796.76 490.521 796.344 490.875C795.948 491.208 795.458 491.375 794.875 491.375H781.656C781.385 491.375 781.167 491.427 781 491.531C780.833 491.635 780.708 491.75 780.625 491.875C780.542 491.979 780.5 492.073 780.5 492.156C780.5 492.26 780.542 492.375 780.625 492.5C780.708 492.604 780.833 492.708 781 492.812C781.167 492.896 781.385 492.948 781.656 492.969H791.875C793.188 492.99 794.271 493.25 795.125 493.75C795.979 494.229 796.583 494.802 796.938 495.469C797.312 496.115 797.5 496.771 797.5 497.438C797.5 498.083 797.312 498.74 796.938 499.406C796.562 500.052 795.948 500.625 795.094 501.125C794.26 501.604 793.188 501.844 791.875 501.844C791.646 501.865 791.479 501.875 791.375 501.875H779.25C778.667 501.875 778.167 501.708 777.75 501.375C777.354 501.021 777.156 500.594 777.156 500.094C777.156 499.573 777.365 499.135 777.781 498.781C778.177 498.448 778.667 498.281 779.25 498.281H792.125C792.438 498.302 792.688 498.26 792.875 498.156C793.083 498.052 793.24 497.938 793.344 497.812C793.448 497.688 793.5 497.562 793.5 497.438C793.5 497.375 793.448 497.271 793.344 497.125C793.24 496.958 793.083 496.833 792.875 496.75C792.688 496.646 792.438 496.583 792.125 496.562H781.875C780.667 496.542 779.667 496.292 778.875 495.812C778.083 495.312 777.521 494.74 777.188 494.094C776.854 493.448 776.688 492.802 776.688 492.156C776.688 491.51 776.854 490.875 777.188 490.25C777.542 489.604 778.104 489.052 778.875 488.594C779.667 488.115 780.667 487.854 781.875 487.812C782.083 487.792 782.24 487.781 782.344 487.781H794.875C795.458 487.781 795.948 487.958 796.344 488.312C796.76 488.646 796.969 489.062 796.969 489.562ZM837.188 485.594C837.188 486.177 836.979 486.667 836.562 487.062C836.167 487.479 835.677 487.688 835.094 487.688H822.594C822.198 487.708 821.865 487.802 821.594 487.969C821.344 488.115 821.156 488.292 821.031 488.5C820.906 488.688 820.844 488.885 820.844 489.094C820.844 489.302 820.906 489.51 821.031 489.719C821.156 489.906 821.344 490.083 821.594 490.25C821.865 490.396 822.198 490.479 822.594 490.5H831.469C832.927 490.542 834.125 490.885 835.062 491.531C836.021 492.156 836.698 492.885 837.094 493.719C837.51 494.531 837.719 495.365 837.719 496.219C837.719 497.052 837.51 497.885 837.094 498.719C836.677 499.531 836 500.26 835.062 500.906C834.125 501.531 832.927 501.844 831.469 501.844H831.281C831.156 501.865 831.031 501.875 830.906 501.875H819.094C818.51 501.875 818.01 501.677 817.594 501.281C817.198 500.865 817 500.365 817 499.781C817 499.198 817.208 498.708 817.625 498.312C818.021 497.896 818.51 497.688 819.094 497.688H831.656C832.052 497.708 832.375 497.635 832.625 497.469C832.896 497.302 833.094 497.115 833.219 496.906C833.344 496.677 833.406 496.448 833.406 496.219C833.406 496.073 833.344 495.875 833.219 495.625C833.094 495.354 832.896 495.135 832.625 494.969C832.375 494.802 832.052 494.708 831.656 494.688H822.781C821.323 494.646 820.115 494.312 819.156 493.688C818.219 493.062 817.542 492.354 817.125 491.562C816.729 490.75 816.531 489.927 816.531 489.094C816.531 488.281 816.74 487.479 817.156 486.688C817.573 485.875 818.25 485.156 819.188 484.531C820.125 483.906 821.323 483.573 822.781 483.531H822.969C823.094 483.51 823.219 483.5 823.344 483.5H835.094C835.677 483.5 836.167 483.708 836.562 484.125C836.979 484.521 837.188 485.01 837.188 485.594ZM848 483C848.583 483 849.083 483.198 849.5 483.594C849.917 483.969 850.135 484.448 850.156 485.031V487.75H860.781C861.365 487.75 861.865 487.948 862.281 488.344C862.677 488.76 862.875 489.26 862.875 489.844C862.875 490.427 862.667 490.927 862.25 491.344C861.854 491.74 861.365 491.938 860.781 491.938H850.156V492.562C850.135 493.417 850.188 494.208 850.312 494.938C850.458 495.646 850.792 496.281 851.312 496.844C851.833 497.406 852.49 497.708 853.281 497.75H860.906C861.49 497.771 861.969 497.99 862.344 498.406C862.74 498.823 862.938 499.323 862.938 499.906C862.917 500.469 862.708 500.948 862.312 501.344C861.938 501.719 861.469 501.917 860.906 501.938H852.219C850.76 501.854 849.552 501.365 848.594 500.469C847.656 499.552 846.979 498.438 846.562 497.125C846.167 495.812 845.958 494.417 845.938 492.938V491.938H842.344C841.76 491.938 841.271 491.729 840.875 491.312C840.458 490.917 840.25 490.427 840.25 489.844C840.25 489.26 840.448 488.771 840.844 488.375C841.26 487.958 841.76 487.75 842.344 487.75H845.938V485.031C845.958 484.469 846.167 484 846.562 483.625C846.958 483.229 847.438 483.021 848 483ZM883.406 500.281V492.75C883.406 492.229 883.135 491.958 882.594 491.938H871.656C871.26 491.958 870.917 492.135 870.625 492.469C870.333 492.781 870.115 493.156 869.969 493.594C869.844 494.01 869.781 494.438 869.781 494.875C869.781 495.292 869.844 495.719 869.969 496.156C870.115 496.573 870.333 496.948 870.625 497.281C870.917 497.594 871.26 497.75 871.656 497.75H879.656C880.24 497.75 880.729 497.958 881.125 498.375C881.542 498.771 881.75 499.26 881.75 499.844C881.75 500.427 881.542 500.917 881.125 501.312C880.729 501.729 880.24 501.938 879.656 501.938H871.781C870.323 501.917 869.115 501.51 868.156 500.719C867.219 499.906 866.542 499 866.125 498C865.729 496.979 865.531 495.927 865.531 494.844C865.531 493.802 865.74 492.781 866.156 491.781C866.573 490.76 867.25 489.854 868.188 489.062C869.125 488.25 870.51 487.812 872.344 487.75H885.469C886.052 487.75 886.552 487.948 886.969 488.344C887.385 488.719 887.604 489.198 887.625 489.781V500.281C887.625 500.865 887.406 501.354 886.969 501.75C886.552 502.125 886.052 502.312 885.469 502.312C884.219 502.208 883.531 501.531 883.406 500.281ZM892.312 491.688C892.708 490.688 893.375 489.792 894.312 489C895.271 488.188 896.479 487.771 897.938 487.75H909.688C910.271 487.75 910.76 487.958 911.156 488.375C911.573 488.771 911.781 489.26 911.781 489.844C911.781 490.427 911.573 490.927 911.156 491.344C910.76 491.74 910.271 491.938 909.688 491.938H897.812C897.417 491.938 897.073 492.104 896.781 492.438C896.49 492.75 896.26 493.125 896.094 493.562C895.948 494 895.875 494.417 895.875 494.812V500.281C895.75 501.531 895.062 502.208 893.812 502.312C893.229 502.312 892.719 502.125 892.281 501.75C891.865 501.354 891.656 500.865 891.656 500.281V494.844H891.688C891.688 493.76 891.896 492.708 892.312 491.688ZM921.656 483C922.24 483 922.74 483.198 923.156 483.594C923.573 483.969 923.792 484.448 923.812 485.031V487.75H934.438C935.021 487.75 935.521 487.948 935.938 488.344C936.333 488.76 936.531 489.26 936.531 489.844C936.531 490.427 936.323 490.927 935.906 491.344C935.51 491.74 935.021 491.938 934.438 491.938H923.812V492.562C923.792 493.417 923.844 494.208 923.969 494.938C924.115 495.646 924.448 496.281 924.969 496.844C925.49 497.406 926.146 497.708 926.938 497.75H934.562C935.146 497.771 935.625 497.99 936 498.406C936.396 498.823 936.594 499.323 936.594 499.906C936.573 500.469 936.365 500.948 935.969 501.344C935.594 501.719 935.125 501.917 934.562 501.938H925.875C924.417 501.854 923.208 501.365 922.25 500.469C921.312 499.552 920.635 498.438 920.219 497.125C919.823 495.812 919.615 494.417 919.594 492.938V491.938H916C915.417 491.938 914.927 491.729 914.531 491.312C914.115 490.917 913.906 490.427 913.906 489.844C913.906 489.26 914.104 488.771 914.5 488.375C914.917 487.958 915.417 487.75 916 487.75H919.594V485.031C919.615 484.469 919.823 484 920.219 483.625C920.615 483.229 921.094 483.021 921.656 483ZM957.75 483C958.312 483.021 958.792 483.229 959.188 483.625C959.583 484 959.792 484.469 959.812 485.031V490.25H969.969V485.031C969.99 484.448 970.208 483.969 970.625 483.594C971.042 483.198 971.542 483 972.125 483C972.688 483.021 973.167 483.229 973.562 483.625C973.958 484 974.167 484.469 974.188 485.031V500.344C974.062 501.594 973.375 502.271 972.125 502.375C971.542 502.375 971.031 502.188 970.594 501.812C970.177 501.417 969.969 500.927 969.969 500.344V494.438H959.812V500.344C959.688 501.594 959 502.271 957.75 502.375C957.167 502.375 956.656 502.188 956.219 501.812C955.802 501.417 955.594 500.927 955.594 500.344V485.031C955.615 484.448 955.833 483.969 956.25 483.594C956.667 483.198 957.167 483 957.75 483ZM984.469 501.938C982.635 501.875 981.25 501.448 980.312 500.656C979.375 499.844 978.698 498.938 978.281 497.938C977.865 496.917 977.656 495.885 977.656 494.844C977.656 493.76 977.854 492.719 978.25 491.719C978.667 490.698 979.344 489.792 980.281 489C981.24 488.188 982.448 487.771 983.906 487.75H995.781C996.365 487.75 996.854 487.948 997.25 488.344C997.667 488.719 997.875 489.177 997.875 489.719C997.875 490.281 997.667 490.76 997.25 491.156C996.854 491.531 996.365 491.719 995.781 491.719H984.094C983.635 491.719 983.229 491.875 982.875 492.188C982.542 492.5 982.292 492.906 982.125 493.406C981.979 493.906 981.906 494.396 981.906 494.875C981.906 495.396 981.979 495.906 982.125 496.406C982.292 496.906 982.542 497.312 982.875 497.625C983.229 497.917 983.635 498.073 984.094 498.094H995.781C996.365 498.094 996.854 498.281 997.25 498.656C997.667 499.031 997.875 499.479 997.875 500C997.875 500.542 997.667 501 997.25 501.375C996.854 501.75 996.365 501.938 995.781 501.938H984.469ZM997.5 494.781C997.5 495.177 997.323 495.521 996.969 495.812C996.656 496.083 996.26 496.219 995.781 496.219H985.562C985.083 496.219 984.677 496.083 984.344 495.812C984.01 495.521 983.844 495.177 983.844 494.781C983.844 494.406 984.01 494.073 984.344 493.781C984.677 493.51 985.083 493.375 985.562 493.375H995.781C996.26 493.375 996.667 493.521 997 493.812C997.333 494.083 997.5 494.406 997.5 494.781ZM1002.12 491.688C1002.52 490.688 1003.19 489.792 1004.12 489C1005.08 488.188 1006.29 487.771 1007.75 487.75H1019.5C1020.08 487.75 1020.57 487.958 1020.97 488.375C1021.39 488.771 1021.59 489.26 1021.59 489.844C1021.59 490.427 1021.39 490.927 1020.97 491.344C1020.57 491.74 1020.08 491.938 1019.5 491.938H1007.62C1007.23 491.938 1006.89 492.104 1006.59 492.438C1006.3 492.75 1006.07 493.125 1005.91 493.562C1005.76 494 1005.69 494.417 1005.69 494.812V500.281C1005.56 501.531 1004.88 502.208 1003.62 502.312C1003.04 502.312 1002.53 502.125 1002.09 501.75C1001.68 501.354 1001.47 500.865 1001.47 500.281V494.844H1001.5C1001.5 493.76 1001.71 492.708 1002.12 491.688ZM1031.09 501.938C1029.26 501.875 1027.88 501.448 1026.94 500.656C1026 499.844 1025.32 498.938 1024.91 497.938C1024.49 496.917 1024.28 495.885 1024.28 494.844C1024.28 493.76 1024.48 492.719 1024.88 491.719C1025.29 490.698 1025.97 489.792 1026.91 489C1027.86 488.188 1029.07 487.771 1030.53 487.75H1042.41C1042.99 487.75 1043.48 487.948 1043.88 488.344C1044.29 488.719 1044.5 489.177 1044.5 489.719C1044.5 490.281 1044.29 490.76 1043.88 491.156C1043.48 491.531 1042.99 491.719 1042.41 491.719H1030.72C1030.26 491.719 1029.85 491.875 1029.5 492.188C1029.17 492.5 1028.92 492.906 1028.75 493.406C1028.6 493.906 1028.53 494.396 1028.53 494.875C1028.53 495.396 1028.6 495.906 1028.75 496.406C1028.92 496.906 1029.17 497.312 1029.5 497.625C1029.85 497.917 1030.26 498.073 1030.72 498.094H1042.41C1042.99 498.094 1043.48 498.281 1043.88 498.656C1044.29 499.031 1044.5 499.479 1044.5 500C1044.5 500.542 1044.29 501 1043.88 501.375C1043.48 501.75 1042.99 501.938 1042.41 501.938H1031.09ZM1044.12 494.781C1044.12 495.177 1043.95 495.521 1043.59 495.812C1043.28 496.083 1042.89 496.219 1042.41 496.219H1032.19C1031.71 496.219 1031.3 496.083 1030.97 495.812C1030.64 495.521 1030.47 495.177 1030.47 494.781C1030.47 494.406 1030.64 494.073 1030.97 493.781C1031.3 493.51 1031.71 493.375 1032.19 493.375H1042.41C1042.89 493.375 1043.29 493.521 1043.62 493.812C1043.96 494.083 1044.12 494.406 1044.12 494.781Z" fill="white"/>
<defs>
<filter id="filter0_f_708_2178" x="321" y="361" width="878" height="124" filterUnits="userSpaceOnUse" color-interpolation-filters="sRGB">
<feFlood flood-opacity="0" result="BackgroundImageFix"/>
<feBlend mode="normal" in="SourceGraphic" in2="BackgroundImageFix" result="shape"/>
<feGaussianBlur stdDeviation="19.5" result="effect1_foregroundBlur_708_2178"/>
</filter>
<linearGradient id="paint0_linear_708_2178" x1="220" y1="-1.92869e-05" x2="1209" y2="1180" gradientUnits="userSpaceOnUse">
<stop stop-color="#363CD0"/>
<stop offset="0.862616" stop-color="#6BC571" stop-opacity="0.620833"/>
<stop offset="1" stop-color="#90EF8D" stop-opacity="0.6"/>
</linearGradient>
</defs>
</svg>
